<svg xmlns="http://www.w3.org/2000/svg" version="1.1" xmlns:xlink="http://www.w3.org/1999/xlink" xmlns:svgjs="http://svgjs.com/svgjs" width="41.46" height="41.16"><svg xmlns="http://www.w3.org/2000/svg" viewBox="0 0 41.46 41.16">
  <defs>
    <style>
      .cls-1 {
        isolation: isolate;
      }

      .cls-2 {
        fill: #f2fcfe;
        font-family: 'Nunito', sans-serif;
        font-size: 10.4px;
        font-variation-settings: 'wght' 550;
        font-weight: 550;
      }

      .cls-3 {
        fill: #7fd5d8;
      }

      .cls-4 {
        fill: #7fc9c4;
      }

      .cls-5 {
        fill: #7fd4d7;
      }

      .cls-6 {
        fill: #015761;
      }

      .cls-7 {
        fill: #fffaff;
        mix-blend-mode: overlay;
        opacity: .68;
      }
    </style>
  </defs>
  <g class="cls-1">
    <g id="SvgjsG1001" data-name="Layer 2">
      <g id="SvgjsG1000" data-name="Layer 1">
        <g>
          <text class="cls-2" transform="translate(0 0)" svgjs:data="{&quot;leading&quot;:&quot;1.3&quot;}"><tspan x="38" y="22" svgjs:data="{&quot;leading&quot;:&quot;1.3&quot;}">PALINGENESIS</tspan></text>
          <g>
            <g>
              <g>
                <path class="cls-5" d="m31.04,18.32c-.36-1.04-1.11-3.13-1.62-4.54,1.14-4.79-.92-9.64-4.8-12.1,0,0,0,0-.01,0,0,0,0,0,0,0,1.17,2.05,1.85,4.46,1.85,7.04,0,1.45-.21,2.85-.61,4.16-1.37,4.53-4.9,8.01-9.29,9.02-.86.2-1.75.3-2.66.3-1.57,0-3.08-.31-4.47-.88.01.04.02.08.03.12.64,3.26-1.54,5.86-1.67,6.02,0,0,0,0,0,0h0s4.48,3.28,10.07,4.35c0,0,2.32-6.83,4.97-6.86,2-.03,2.76-.01,3.55,0,.47,0,.88-.32.99-.78.32-1.42,1.01-4.27,1.43-4.4.56-.17,2.82.2,2.25-1.45Z"></path>
                <path class="cls-7" d="m27.03,12.66c-.22,1.81-.7,3.51-1.41,4.91-.81,1.6-1.9,3-3.42,4.12-1.72,1.27-4.01,2.18-7.1,2.64-4.79.71-7.17,2.98-7.32,3.13.05-.06.4-.47.77-1.15.04-.07.08-.14.11-.21.02-.03.03-.06.05-.09.03-.05.05-.1.08-.16.11-.23.22-.48.32-.75.02-.05.04-.1.05-.15.02-.05.03-.1.05-.16.01-.03.02-.07.03-.11.02-.06.03-.11.05-.17.02-.05.03-.11.04-.16t0,0s.02-.07.03-.11c.01-.05.03-.11.04-.16.01-.06.03-.12.04-.19,0-.04.01-.08.02-.12,0-.05.02-.1.02-.15.01-.07.02-.14.03-.21.01-.1.02-.19.03-.29,0-.04,0-.09,0-.14,0-.05,0-.1,0-.15,0-.06,0-.12,0-.18,0-.04,0-.07,0-.11,0-.04,0-.07,0-.11,0-.04,0-.07,0-.11,0-.07,0-.15-.02-.22,0-.01,0-.03,0-.04,0-.05-.01-.1-.02-.15-.01-.09-.02-.17-.03-.26-.02-.11-.04-.22-.06-.32,0,0,0,0,0,0,0,0,0,0,0,0h0s0,0,.01,0h0c1.38.56,2.88.87,4.45.87.91,0,1.81-.1,2.66-.3,4.39-1.02,7.93-4.49,9.29-9.02.4-1.31.61-2.71.61-4.16,0-2.58-.67-4.99-1.85-7.04,0,0,0,0,0,0,0,0,0,0,.01,0,2.18,2.95,2.87,7.2,2.42,10.99Z"></path>
                <polygon class="cls-5" points="9.42 21.32 9.42 21.32 9.42 21.32 9.42 21.32 9.42 21.32"></polygon>
                <path class="cls-5" d="m26.78,9.49c0,1.13-.12,2.23-.35,3.27-.94,4.36-3.74,7.89-7.37,9.43-1.27.54-2.64.83-4.08.83-1.96,0-5.41-1.6-5.56-1.7,0,0,0,0,0,0,0,0,0,0,.01,0h0c1.38.56,2.88.87,4.45.87.91,0,1.81-.1,2.66-.3,4.39-1.02,7.93-4.49,9.29-9.02.4-1.31.61-2.71.61-4.16,0-2.58-.67-4.99-1.85-7.04,0,0,0,0,0,0,1.37,2.21,2.17,4.91,2.17,7.83Z"></path>
              </g>
              <path class="cls-3" d="m24.29,4.62c.07,1.31-.07,3.12-.97,4.93.1,1.85-.36,3.97-1.41,6-1.28,2.48-3.18,4.3-5.12,5.17,2.65-.33,5.52-2.57,7.29-5.98,1.96-3.78,1.95-7.85.21-10.13Z"></path>
              <path class="cls-3" d="m7.46,12.72c-.15,1.9.11,3.75.7,5.45-.08-.08-.16-.17-.24-.25-3.62-4.1-2.69-10.75,2.09-14.85C13.32.21,17.63-.65,21.16.48c-7.08-.14-13.13,5.18-13.7,12.24Z"></path>
              <g>
                <path class="cls-4" d="m15.45,6.19s-.05,0-.07-.02c-.09-.05-.12-.17-.08-.27.42-1.05,1.58-1.51,1.62-1.53.09-.04.19.02.22.13.03.11-.02.22-.11.26-.01,0-1.07.43-1.42,1.32-.03.07-.09.12-.16.12Z"></path>
                <g>
                  <path class="cls-4" d="m20.65,8.15c-1.1-.83-1.45-2.49-1.45-2.49,0,0,1.43-.33,2.52.5,1.1.83,1.45,2.49,1.45,2.49,0,0-1.43.33-2.52-.5Z"></path>
                  <path class="cls-6" d="m22.48,8.91c-.52,0-1.28-.1-1.93-.59-1.14-.86-1.51-2.54-1.52-2.61-.01-.05,0-.11.02-.16.03-.05.07-.08.11-.09.01,0,.3-.07.72-.07.52,0,1.27.1,1.93.59,1.14.86,1.51,2.54,1.52,2.61.01.05,0,.11-.02.16-.03.05-.07.08-.11.09-.01,0-.3.07-.72.07Zm-3.06-3.09c.13.46.52,1.55,1.32,2.15.58.44,1.27.53,1.74.53.19,0,.35-.01.46-.03-.13-.46-.52-1.55-1.32-2.15-.58-.44-1.27-.53-1.74-.53-.19,0-.35.01-.46.03Z"></path>
                </g>
                <g>
                  <path class="cls-6" d="m19.99,6.4c.62.08,1.5.35,2.5,1.75,0,0-1.57-1.51-2.5-1.75Z"></path>
                  <path class="cls-6" d="m20.83,6.8s.71.71.77,1.25c-.06-.73-.42-1.1-.42-1.1l-.35-.16Z"></path>
                </g>
                <path class="cls-4" d="m13.79,7.44c-.06,0-.11-.03-.14-.09-.05-.09-.03-.22.05-.28.07-.06,1.7-1.35,3.4-.66.09.04.14.15.11.26-.03.11-.13.16-.22.13-1.53-.62-3.07.6-3.09.61-.03.02-.06.04-.1.04Z"></path>
                <g>
                  <path class="cls-4" d="m17.26,3.05c.9-.72,2.09-.49,2.09-.49,0,0-.26,1.4-1.16,2.12-.9.72-2.09.49-2.09.49,0,0,.26-1.4,1.16-2.12Z"></path>
                  <path class="cls-6" d="m16.56,5.41c-.29,0-.48-.04-.49-.04-.05,0-.09-.04-.11-.09-.03-.05-.04-.1-.03-.16.01-.06.29-1.49,1.23-2.24.57-.46,1.26-.56,1.73-.56.29,0,.48.04.49.04.05,0,.09.04.11.09.03.05.04.1.03.16-.01.06-.29,1.49-1.23,2.24-.57.46-1.26.56-1.73.56Zm-.24-.42c.07,0,.15,0,.24,0,.42,0,1.03-.08,1.53-.49.62-.5.92-1.37,1.03-1.77-.07,0-.15,0-.24,0-.42,0-1.03.08-1.53.49-.62.5-.92,1.37-1.03,1.77Z"></path>
                </g>
                <g>
                  <path class="cls-4" d="m20.98,6.8c-.88-.1-1.53-.99-1.53-.99,0,0,.78-.72,1.66-.61.88.1,1.53.99,1.53.99,0,0-.78.72-1.66.61Z"></path>
                  <path class="cls-6" d="m21.16,7.01c-.06,0-.13,0-.19-.01-.94-.11-1.61-1.02-1.64-1.06-.03-.04-.05-.1-.04-.15,0-.06.03-.11.07-.14.03-.03.74-.67,1.59-.67.06,0,.13,0,.19.01.94.11,1.61,1.02,1.64,1.06.03.04.05.1.04.15,0,.06-.03.11-.07.14-.03.03-.74.67-1.59.67Zm-1.43-1.17c.22.25.7.69,1.27.75.05,0,.11,0,.16,0,.51,0,.98-.28,1.21-.45-.22-.25-.7-.69-1.27-.75-.05,0-.11,0-.16,0-.51,0-.98.28-1.21.45Z"></path>
                </g>
                <path class="cls-4" d="m17.61,5.69c-.07,0-.14-.06-.16-.14-.03-.11.02-.22.12-.25.44-.16.68-.41.9-.66.31-.33.62-.68,1.38-.7.1,0,.17.09.18.2,0,.11-.07.21-.17.21-.63.02-.86.27-1.15.59-.24.26-.51.56-1.03.75-.02,0-.03,0-.05,0Z"></path>
                <path class="cls-4" d="m11.84,11.43s-.02,0-.03,0c-.1,0-.17-.09-.17-.21,0-.11.08-.2.17-.2,0,0,0,0,0,0,.71.01,1.06-.46,1.46-1.02.35-.48.72-.98,1.36-1.13.09-.02.18.05.2.16.02.11-.04.22-.14.24-.52.12-.83.55-1.16,1-.4.54-.85,1.16-1.7,1.16Z"></path>
                <path class="cls-4" d="m12.71,8.96c-.08,0-.16-.07-.17-.17-.01-.11.05-.21.15-.23.01,0,.84-.16,1.18-.92.25-.56.19-1.31-.18-2.24-.04-.1,0-.22.08-.27.09-.05.19,0,.23.1.42,1.05.48,1.93.17,2.61-.43.94-1.39,1.12-1.43,1.12,0,0-.02,0-.03,0Z"></path>
                <g>
                  <path class="cls-4" d="m20.28,4.45c-.76.53-1.72.27-1.72.27,0,0,.27-1.12,1.03-1.66.76-.53,1.72-.27,1.72-.27,0,0-.27,1.12-1.03,1.66Z"></path>
                  <path class="cls-6" d="m19.12,4.99c-.34,0-.59-.07-.6-.07-.05-.01-.09-.05-.11-.09-.02-.05-.03-.11-.02-.16.01-.05.3-1.21,1.11-1.78.43-.3.92-.36,1.25-.36s.59.07.6.07c.05.01.09.05.11.09.02.05.03.11.02.16-.01.05-.3,1.21-1.11,1.78-.43.3-.92.36-1.25.36Zm-.33-.43c.09.01.2.02.33.02.29,0,.71-.05,1.07-.31.5-.35.77-.98.89-1.32-.09-.01-.2-.02-.33-.02-.29,0-.71.05-1.07.31-.5.35-.77.98-.89,1.32Z"></path>
                </g>
                <g>
                  <path class="cls-4" d="m13.42,5.62c.13-1.16.99-1.99.99-1.99,0,0,.65,1.06.53,2.22-.13,1.16-.99,1.99-.99,1.99,0,0-.65-1.06-.53-2.22Z"></path>
                  <path class="cls-6" d="m13.95,8.05s-.01,0-.02,0c-.05,0-.09-.04-.12-.08-.03-.05-.69-1.14-.56-2.37.13-1.23,1.01-2.09,1.05-2.12.04-.04.08-.05.13-.04.05,0,.09.04.12.08.03.05.69,1.14.56,2.37-.13,1.23-1.01,2.09-1.05,2.12-.03.03-.07.05-.11.05Zm.43-4.1c-.24.28-.7.92-.78,1.7-.09.79.22,1.54.39,1.88.24-.28.7-.92.78-1.7.09-.79-.22-1.54-.39-1.88Z"></path>
                </g>
                <path class="cls-4" d="m12,15.29s-.03,0-.05,0c-.09-.03-.14-.14-.12-.25h0s.23-.94.12-2c-.14-1.38-.75-2.33-1.83-2.8-.09-.04-.13-.16-.1-.26.03-.11.13-.16.22-.12,1.19.52,1.9,1.61,2.05,3.14.11,1.14-.12,2.11-.13,2.15-.02.09-.09.15-.17.15Z"></path>
                <path class="cls-4" d="m11.61,11.4c-.06,0-.12-.04-.15-.1-.72-1.52-.11-3.25-.08-3.32.04-.1.14-.15.23-.11.09.04.13.16.09.27,0,.02-.57,1.62.07,2.96.05.1.02.22-.07.28-.03.02-.06.03-.08.03Z"></path>
                <path class="cls-4" d="m15.24,19.97c-.07,0-.13-.05-.16-.13,0-.02-.35-.98-1.06-1.84-.93-1.13-2.01-1.55-3.22-1.24-.09.02-.18-.05-.2-.16-.02-.11.04-.22.13-.24,1.31-.34,2.54.13,3.54,1.36.75.91,1.11,1.91,1.12,1.96.04.1,0,.22-.09.27-.02.01-.04.02-.07.02Z"></path>
                <path class="cls-4" d="m13.84,17.71s-.07-.01-.1-.04c-.83-.74-1.19-2.12-.88-3.28.03-.11.13-.17.22-.13.09.03.14.15.11.26-.27,1,.04,2.19.76,2.83.08.07.09.2.03.29-.03.05-.09.08-.14.08Z"></path>
                <g>
                  <path class="cls-4" d="m12.93,7.53c-.4,1.46-1.68,2.28-1.68,2.28,0,0-.63-1.55-.23-3.01.4-1.46,1.68-2.28,1.68-2.28,0,0,.63,1.55.23,3.01Z"></path>
                  <path class="cls-6" d="m11.25,10.02s-.04,0-.05,0c-.04-.02-.08-.06-.1-.11-.03-.07-.65-1.64-.23-3.16.42-1.52,1.7-2.37,1.76-2.4.04-.03.09-.03.14-.01.04.02.08.06.1.11.03.07.65,1.64.23,3.16-.42,1.52-1.7,2.37-1.76,2.4-.03.02-.05.02-.08.02Zm1.37-5.2c-.35.27-1.14.99-1.43,2.05-.29,1.06,0,2.19.14,2.65.35-.27,1.14-.99,1.43-2.05.29-1.06,0-2.19-.14-2.65Z"></path>
                </g>
                <g>
                  <path class="cls-4" d="m9.77,10.78c-.66-.39-.95-1.3-.95-1.3,0,0,.79-.29,1.45.09.66.39.95,1.3.95,1.3,0,0-.79.29-1.45-.09Z"></path>
                  <path class="cls-6" d="m10.56,11.18c-.33,0-.62-.07-.87-.22-.72-.42-1.02-1.37-1.04-1.41-.02-.05-.01-.11,0-.16.02-.05.06-.09.1-.1.01,0,.32-.11.71-.11.33,0,.62.07.87.22.72.42,1.02,1.37,1.04,1.41.02.05.01.11,0,.16-.02.05-.06.09-.1.1-.01,0-.32.11-.71.11Zm-1.5-1.56c.12.27.38.74.78.98.2.12.45.18.72.18.16,0,.31-.02.41-.04-.12-.27-.38-.74-.78-.98-.2-.12-.45-.18-.72-.18-.16,0-.3.02-.41.04Z"></path>
                </g>
                <g>
                  <path class="cls-4" d="m14.07,13.87c-.24,1.06-1.13,1.7-1.13,1.7,0,0-.49-1.08-.25-2.14.24-1.06,1.13-1.7,1.13-1.7,0,0,.49,1.08.25,2.14Z"></path>
                  <path class="cls-6" d="m12.94,15.77s-.03,0-.04,0c-.05-.01-.08-.05-.11-.1-.02-.05-.52-1.16-.27-2.29.26-1.13,1.17-1.79,1.2-1.82.04-.03.09-.04.13-.02.05.01.08.05.11.1.02.05.52,1.16.27,2.29-.26,1.13-1.17,1.79-1.2,1.82-.03.02-.06.03-.09.03Zm.81-3.74c-.25.23-.73.74-.89,1.44-.16.71.03,1.43.15,1.78.25-.23.73-.74.89-1.44.16-.7-.03-1.43-.16-1.78Z"></path>
                </g>
                <g>
                  <path class="cls-4" d="m11.67,17.91c-.93.05-1.71-.76-1.71-.76,0,0,.72-.88,1.65-.93.93-.05,1.71.76,1.71.76,0,0-.72.88-1.65.93Z"></path>
                  <path class="cls-6" d="m11.59,18.12c-.95,0-1.71-.78-1.75-.81-.04-.04-.06-.09-.06-.15,0-.06.02-.11.05-.15.03-.04.78-.94,1.77-.99.98-.05,1.8.78,1.83.81.04.04.06.09.06.15,0,.06-.02.11-.05.15-.03.04-.78.94-1.77.99-.03,0-.06,0-.09,0Zm-1.36-.98c.26.22.82.6,1.43.57.61-.03,1.14-.47,1.39-.71-.26-.22-.82-.6-1.43-.57-.62.03-1.14.47-1.39.71Z"></path>
                </g>
                <g>
                  <g>
                    <path class="cls-4" d="m17.31,8.92c-1.1-.82-1.45-2.49-1.45-2.49,0,0,1.43-.33,2.52.5,1.1.83,1.45,2.49,1.45,2.49,0,0-1.43.33-2.52-.5Z"></path>
                    <path class="cls-6" d="m19.15,9.68c-.52,0-1.28-.1-1.93-.59-1.14-.86-1.51-2.54-1.52-2.61-.01-.05,0-.11.02-.16.03-.05.07-.08.11-.09.01,0,.3-.07.72-.07.52,0,1.28.1,1.93.59,1.14.86,1.51,2.54,1.52,2.61.01.05,0,.11-.02.16-.03.05-.07.08-.11.09-.01,0-.3.07-.72.07Zm-3.06-3.09c.13.46.52,1.55,1.32,2.15.58.44,1.27.53,1.74.53.19,0,.35-.01.46-.03-.13-.46-.52-1.55-1.32-2.15-.58-.44-1.27-.53-1.74-.53-.19,0-.35.01-.46.03Z"></path>
                  </g>
                  <g>
                    <path class="cls-6" d="m16.16,6.65c.41.7,1.13,1.58,2.88,2,0,0-2.16-1.02-2.88-2Z"></path>
                    <path class="cls-6" d="m16.96,7.43s1,.44,1.49.21c-.65.34-1.17.11-1.17.11l-.33-.33Z"></path>
                  </g>
                </g>
                <g>
                  <path class="cls-6" d="m11.39,9.03c.48-.62,1.06-1.62,1.03-3.71,0,0-.38,2.68-1.03,3.71Z"></path>
                  <path class="cls-6" d="m11.86,7.94s.15-1.23-.14-1.75c.41.68.33,1.31.33,1.31l-.2.44Z"></path>
                </g>
                <g>
                  <g>
                    <path class="cls-4" d="m14.97,10.11c-.83.79-2.02.67-2.02.67,0,0,.16-1.39,1-2.18.83-.79,2.02-.67,2.02-.67,0,0-.16,1.39-1,2.18Z"></path>
                    <path class="cls-6" d="m13.13,10.99c-.12,0-.19,0-.19,0-.05,0-.09-.03-.12-.08-.03-.04-.04-.1-.04-.16,0-.06.18-1.48,1.06-2.31.69-.65,1.59-.72,1.95-.72.12,0,.19,0,.19,0,.05,0,.09.03.12.08.03.04.04.1.04.16,0,.06-.18,1.48-1.06,2.31-.69.65-1.59.72-1.95.72Zm2.63-2.86c-.34,0-1.12.08-1.7.63-.58.54-.81,1.41-.89,1.82.34,0,1.12-.08,1.7-.63.58-.54.81-1.41.89-1.82Z"></path>
                  </g>
                  <g>
                    <path class="cls-6" d="m13.32,10.42c.55-.19,1.29-.6,2-2.04,0,0-1.2,1.65-2,2.04Z"></path>
                    <path class="cls-6" d="m14.02,9.91s.54-.77.52-1.27c.05.66-.23,1.06-.23,1.06l-.29.21Z"></path>
                  </g>
                </g>
                <g>
                  <g>
                    <path class="cls-4" d="m11.4,12.49c.65,1,.52,2.4.52,2.4,0,0-1.17-.23-1.82-1.23-.65-1-.52-2.4-.52-2.4,0,0,1.17.23,1.82,1.23Z"></path>
                    <path class="cls-6" d="m12.1,14.69c0,.14-.01.22-.01.22,0,.06-.03.11-.07.14-.04.03-.09.05-.13.04-.05,0-1.25-.25-1.93-1.31-.53-.83-.57-1.9-.56-2.32,0-.14.01-.22.01-.22,0-.06.03-.11.07-.14.04-.03.09-.05.13-.04.05,0,1.25.25,1.93,1.31.53.83.57,1.9.56,2.32Zm-2.36-3.18c0,.41.04,1.33.49,2.03.45.69,1.18.99,1.52,1.1,0-.41-.04-1.33-.49-2.03-.45-.69-1.18-.99-1.52-1.1Z"></path>
                  </g>
                  <g>
                    <path class="cls-6" d="m11.63,14.45c-.15-.65-.48-1.54-1.68-2.41,0,0,1.37,1.46,1.68,2.41Z"></path>
                    <path class="cls-6" d="m11.21,13.61s-.64-.65-1.06-.64c.56-.04.89.29.89.29l.17.35Z"></path>
                  </g>
                </g>
                <g>
                  <path class="cls-6" d="m12.93,17.01c-.48-.22-1.21-.41-2.39.17,0,0,1.63-.42,2.39-.17Z"></path>
                  <path class="cls-6" d="m12.19,16.93s-.74.21-.96.58c.27-.51.66-.62.66-.62l.3.04Z"></path>
                </g>
                <g>
                  <path class="cls-6" d="m18.94,4.46c.46-.11,1.08-.38,1.75-1.49,0,0-1.07,1.24-1.75,1.49Z"></path>
                  <path class="cls-6" d="m19.53,4.1s.48-.58.5-.99c0,.54-.25.84-.25.84l-.25.14Z"></path>
                </g>
                <g>
                  <path class="cls-6" d="m14.1,7.2c-.18-.56-.32-1.41.17-2.77,0,0-.36,1.89-.17,2.77Z"></path>
                  <path class="cls-6" d="m14.04,6.34s.18-.86.49-1.11c-.43.31-.52.75-.52.75l.03.35Z"></path>
                </g>
                <g>
                  <path class="cls-6" d="m16.62,4.84c.31-.61.86-1.39,2.28-1.86,0,0-1.73,1-2.28,1.86Z"></path>
                  <path class="cls-6" d="m17.25,4.14s.8-.44,1.22-.28c-.56-.23-.97,0-.97,0l-.25.29Z"></path>
                </g>
                <g>
                  <path class="cls-6" d="m10.7,10.62c-.21-.31-.56-.7-1.38-.84,0,0,1.02.41,1.38.84Z"></path>
                  <path class="cls-6" d="m10.3,10.28s-.47-.17-.7-.05c.29-.18.54-.09.54-.09l.16.14Z"></path>
                </g>
                <g>
                  <path class="cls-6" d="m19.97,5.83c.44-.17,1.11-.3,2.15.29,0,0-1.45-.46-2.15-.29Z"></path>
                  <path class="cls-6" d="m20.64,5.8s.66.23.84.58c-.23-.47-.57-.59-.57-.59l-.28.02Z"></path>
                </g>
                <g>
                  <path class="cls-6" d="m13.08,14.93c-.07-.55-.07-1.34.6-2.46,0,0-.63,1.62-.6,2.46Z"></path>
                  <path class="cls-6" d="m13.17,14.14s.3-.73.62-.89c-.43.19-.59.56-.59.56l-.03.32Z"></path>
                </g>
              </g>
            </g>
            <path class="cls-3" d="m21.98,13.38c-.09-.37-.3-.68-.58-.89-.12-.09-.17-.26-.1-.4.1-.2.14-.43.11-.67-.05-.33-.23-.65-.52-.9-.17-.15-.46-.34-.8-.36-.07,0-.13,0-.19,0l-.16.24c.1-.04.22-.07.34-.06.29.02.54.18.69.32.25.22.42.5.46.79.01.09.01.19,0,.28-.04.22-.3.34-.49.22-.09-.06-.2-.09-.31-.1-.05,0-.1.04-.1.09,0,.05.04.1.1.1.18,0,.35.14.39.31.04.17-.05.37-.21.45-.05.02-.07.08-.04.13,0,.02.02.03.03.04.03.02.06.02.1,0,.09-.04.17-.11.22-.2.11-.17.35-.2.49-.06.2.18.34.43.41.7.11.46,0,.89-.32,1.2-.17.17-.39.25-.6.23,0-.02-.01-.04-.02-.06-.08-.24-.28-.41-.51-.45-.05,0-.1.03-.11.08,0,.05.03.1.08.11.16.02.3.15.35.32.05.16.04.35-.05.52-.07.16-.18.29-.32.37-.14.08-.31.11-.45.07-.15-.04-.28-.16-.32-.3-.02-.05-.07-.08-.12-.06-.05.01-.08.07-.06.12.04.14.13.26.26.34.06.04.12.07.19.09.09.02.19.03.28.02.18-.02.35.09.36.26.03.3-.05.6-.22.87-.25.39-.66.64-1.11.65-.19,0-.43-.03-.61-.13-.11-.06-.18-.19-.16-.32,0-.09,0-.18-.01-.27-.03-.13.03-.27.15-.34.06-.04.11-.08.16-.13.2-.21.28-.53.21-.81-.01-.05-.06-.08-.12-.07s-.08.06-.07.11c.05.22-.01.47-.16.63-.16.16-.4.24-.62.2-.22-.04-.42-.2-.5-.41-.02-.05-.08-.07-.13-.05-.05.02-.07.07-.05.12.06.16.18.3.33.4.1.06.21.11.32.13.07.01.14.02.21.01h0c.13.2.14.49.02.73-.11.22-.31.41-.57.53-.46.22-.92.27-1.28.15-.48-.16-.84-.47-.98-.82-.03-.08-.04-.18-.03-.28l-.17.26s.02.06.03.09c.1.26.31.5.58.68.15.1.33.19.52.25.4.13.91.07,1.42-.16.3-.14.53-.36.66-.61.03.03.07.06.1.08.28.18.65.19.77.19.51-.01.98-.29,1.27-.74.25-.39.31-.84.19-1.26-.03-.1,0-.21.07-.3.06-.07.11-.15.15-.24.03-.07.05-.13.07-.2.02-.11.12-.2.24-.23.18-.04.36-.13.5-.27.36-.35.5-.87.37-1.38Zm-1.98.91s-.08-.07-.13-.05c-.24.1-.54.06-.73-.11-.19-.17-.28-.46-.22-.71.07-.25.29-.45.55-.5.05,0,.09-.06.08-.11-.01-.05-.06-.09-.11-.08-.33.06-.61.31-.7.63-.02.07-.03.14-.03.21,0,.15-.1.29-.24.33-.14.03-.29.01-.41-.05-.16-.08-.27-.27-.31-.46l-.03.05c-.07.11-.07.26,0,.36.05.07.12.14.19.19.02.01.03.02.05.03.19.1.41.12.61.05.13-.04.26,0,.34.1.03.03.06.07.09.1.03.02.06.04.08.06.25.17.58.2.85.07.05-.02.07-.08.05-.13Zm-3.35,2.08c-.09-.13-.21-.23-.36-.29-.14-.06-.31-.01-.4.12.23-.02.47.09.6.27.17.24.14.6-.06.81-.04.04-.03.1,0,.14h.01s.09.03.12,0c.25-.28.29-.74.07-1.05Zm3.54-5.1c-.02-.05-.07-.08-.12-.07-.05.02-.08.07-.06.12.06.19-.01.41-.17.55-.15.13-.38.19-.59.15-.15-.03-.3-.1-.44-.21,0,.07-.04.12-.1.15h0s.06.06.1.08c.13.09.27.15.41.17.28.05.56-.02.75-.19.22-.19.31-.49.23-.75Z"></path>
          </g>
        </g>
      </g>
    </g>
  </g>
</svg><style>@media (prefers-color-scheme: light) { :root { filter: none; } }
</style></svg>